<svg id="Group_425" data-name="Group 425" xmlns="http://www.w3.org/2000/svg" width="88.325" height="15.972" viewBox="0 0 88.325 15.972">
  <path id="Path_86" data-name="Path 86" d="M96.8,8.8h6.187l2.441,8.522h.341L108.209,8.8H114.4V23.721h-4.683v-6.6h-.369l-1.9,6.6h-3.661l-1.9-6.6h-.369v6.6H96.8Z" transform="translate(-96.8 -8.289)" fill="#161735"/>
  <path id="Path_87" data-name="Path 87" d="M173.59,21.839H167.2l-.653,1.954H161.5L166.978,8.9h6.868l5.478,14.893h-5.052Zm-1.22-3.652-1.561-4.672h-.851L168.4,18.187Z" transform="translate(-143.203 -8.361)" fill="#161735"/>
  <path id="Path_88" data-name="Path 88" d="M231.481,12.905h-5.336V23.721h-4.91V12.905H215.9V8.8h15.638v4.105Z" transform="translate(-182.215 -8.289)" fill="#161735"/>
  <path id="Path_89" data-name="Path 89" d="M272.29,17.449h4.4c.057.991.908,1.614,3.037,1.642,1.873.028,2.753-.538,2.753-1.218,0-.481-.284-.963-1.731-1.189l-1.9-.311c-2.81-.481-6.216-.821-6.216-4.616C272.659,8.812,275.043,7,279.783,7c4.286,0,7.237,1.189,7.152,5.465h-4.371c-.2-.991-.993-1.614-2.867-1.614-1.618,0-2.3.51-2.3,1.189,0,.425.284.934,1.419,1.133l1.561.283c2.98.51,7.039.595,7.039,4.672,0,3.257-2.526,4.871-7.635,4.842C274.618,22.915,272.177,21.329,272.29,17.449Z" transform="translate(-222.653 -7)" fill="#161735"/>
  <path id="Path_90" data-name="Path 90" d="M328.8,8.8h4.91V23.721H328.8Z" transform="translate(-263.154 -8.289)" fill="#161735"/>
  <path id="Path_91" data-name="Path 91" d="M349.5,15.057c0-4.757,3.321-7.957,8.429-7.957,5.137,0,8.429,3.172,8.429,7.957s-3.321,7.957-8.429,7.957S349.5,19.843,349.5,15.057Zm12.005,0a3.578,3.578,0,1,0-7.152,0,3.578,3.578,0,1,0,7.152,0Z" transform="translate(-278.033 -7.072)" fill="#161735"/>
</svg>
